<svg version="1.1" viewBox="0.0 0.0 760.0 664.7611548556431" fill="none" stroke="none" stroke-linecap="square" stroke-miterlimit="10" xmlns:xlink="http://www.w3.org/1999/xlink" xmlns="http://www.w3.org/2000/svg"><clipPath id="p.0"><path d="m0 0l760.0 0l0 664.76117l-760.0 0l0 -664.76117z" clip-rule="nonzero"/></clipPath><g clip-path="url(#p.0)"><path fill="#000000" fill-opacity="0.0" d="m0 0l760.0 0l0 664.76117l-760.0 0z" fill-rule="evenodd"/><path fill="#1c4587" d="m32.380577 134.6083l0 0c0 -55.406433 44.915787 -100.32222 100.32221 -100.32222l492.67844 0c26.607056 0 52.12445 10.56963 70.93848 29.383694c18.814087 18.814064 29.383728 44.331413 29.383728 70.93852l0 401.27682c0 55.406433 -44.915833 100.322205 -100.322205 100.322205l-492.67844 0c-55.406425 0 -100.32221 -44.91577 -100.32221 -100.322205z" fill-rule="evenodd"/><path fill="#ff9900" d="m168.9108 124.89292c-17.575851 0 -33.08394 5.1702805 -46.524292 15.510826c-13.440353 10.340546 -23.87754 24.461853 -31.311584 42.363953c-7.3848114 17.837448 -11.077217 37.87227 -11.077217 60.104446c0 21.844406 3.8401031 41.394516 11.520302 58.650314c7.729439 17.255798 18.388168 30.763123 31.97622 40.522034c13.637276 9.694275 29.36692 14.541412 47.188927 14.541412l59.890778 0c10.5849 0 19.59436 3.1021729 27.028397 9.306488c7.4340515 6.1397095 13.169586 14.282898 17.206604 24.429565c4.086273 10.082031 6.1293945 21.068878 6.1293945 32.96051c0 11.568481 -2.1169739 22.52301 -6.3509216 32.863556c-4.2339783 10.275909 -10.141815 18.70993 -17.723541 25.302032c-7.5325165 6.5274963 -16.591202 9.791199 -27.176102 9.791199l-137.43127 0l0 50.604065l142.45294 0c17.526611 0 33.08394 -5.3641357 46.67198 -16.092468c13.637268 -10.7282715 24.148315 -25.49591 31.533142 -44.302795c7.434021 -18.87149 11.151062 -40.42508 11.151062 -64.66077c0 -21.844421 -3.6431885 -41.297577 -10.929535 -58.359467c-7.237091 -17.126556 -17.674316 -30.633911 -31.311584 -40.522064c-13.588043 -9.952789 -29.908463 -14.929169 -48.961273 -14.929169l-61.220047 0c-9.698715 0 -18.26509 -2.9729004 -25.699142 -8.918701c-7.384796 -5.9458313 -12.972641 -13.765869 -16.763504 -23.460144c-3.790863 -9.758911 -5.686302 -20.002518 -5.686302 -30.73082c0 -11.116104 1.969284 -21.52127 5.9078445 -31.215546c3.9385529 -9.758896 9.674103 -17.708206 17.206604 -23.8479c7.5817413 -6.2043304 16.36966 -9.306488 26.363754 -9.306488l130.7111 0l0 -50.604073z" fill-rule="evenodd"/><path fill="#ff9900" d="m461.518 117.71916c-16.935822 0 -31.902374 5.0733337 -44.899628 15.220001c-12.997253 10.146652 -23.139069 23.94484 -30.425415 41.394516c-7.2371216 17.449677 -10.855652 37.09674 -10.855652 58.941147l0 308.56848l43.570343 0l0 -316.227c0 -10.7283325 1.8954468 -20.454895 5.68631 -29.179733c3.790863 -8.78949 8.935608 -15.737045 15.434235 -20.842682c6.498657 -5.170273 13.661896 -7.7554016 21.489807 -7.755417c7.877136 0 15.138855 2.585144 21.785187 7.755417c6.6955566 5.105652 11.988007 12.053223 15.877319 20.842682c3.938568 8.724838 5.9078674 18.4514 5.9078674 29.179733l0 207.84508c0 21.844452 3.6185303 41.491486 10.855652 58.941162c7.286316 17.449677 17.35431 31.247864 30.203857 41.39453c12.849548 10.146606 27.742249 15.219971 44.6781 15.219971c16.985046 0 31.828491 -5.0733643 44.530396 -15.219971c12.701843 -10.1466675 22.671326 -23.944855 29.908447 -41.39453c7.286377 -17.449677 10.929504 -37.09671 10.929504 -58.941162l0 -308.5685l-43.570312 0l0 316.32394c0 10.728302 -1.8954468 20.454895 -5.6863403 29.179749c-3.7908325 8.724823 -8.861755 15.672363 -15.2127075 20.842651c-6.350891 5.1703186 -13.317261 7.755432 -20.898987 7.755432c-7.5325317 0 -14.548096 -2.5851135 -21.046692 -7.755432c-6.498657 -5.170288 -11.717224 -12.117828 -15.655823 -20.842651c-3.9385376 -8.7248535 -5.907837 -18.451447 -5.907837 -29.179749l0 -207.94203c0 -21.844406 -3.6431885 -41.49147 -10.929504 -58.941147c-7.2371216 -17.449677 -17.35431 -31.247864 -30.351562 -41.394516c-12.997253 -10.1466675 -28.136108 -15.220001 -45.416565 -15.220001z" fill-rule="evenodd"/></g></svg>