<svg version="1.1" viewBox="0.0 0.0 941.7926509186352 206.89763779527559" fill="none" stroke="none" stroke-linecap="square" stroke-miterlimit="10" xmlns:xlink="http://www.w3.org/1999/xlink" xmlns="http://www.w3.org/2000/svg"><clipPath id="p.0"><path d="m0 0l941.79266 0l0 206.89764l-941.79266 0l0 -206.89764z" clip-rule="nonzero"/></clipPath><g clip-path="url(#p.0)"><path fill="#000000" fill-opacity="0.0" d="m0 0l941.79266 0l0 206.89764l-941.79266 0z" fill-rule="evenodd"/><path fill="#1c4587" d="m28.829397 44.580593l0 0c0 -14.890244 12.070925 -26.96117 26.961168 -26.96117l853.4477 0c7.1505737 0 14.00824 2.8405437 19.064453 7.896744c5.0562134 5.0562 7.8967285 11.913879 7.8967285 19.064426l0 107.84143c0 14.890244 -12.070923 26.961182 -26.961182 26.961182l-853.4477 0c-14.890244 0 -26.961168 -12.070938 -26.961168 -26.961182z" fill-rule="evenodd"/><path fill="#ff9900" d="m90.51579 56.41601c4.445648 0 8.520828 0.95633316 12.225525 2.8689919c3.7046967 1.9126625 6.6684723 4.6438103 8.891296 8.193428c2.222824 3.532402 3.3342361 7.8402023 3.3342361 12.923393c0 4.9798203 -1.0855637 9.270386 -3.2566986 12.871696c-2.1711273 3.6013184 -5.134903 6.332466 -8.891289 8.193436c-3.7563934 1.8437347 -7.9091187 2.765602 -12.458153 2.765602l-29.54287 0l0 -47.816547zm-44.947556 -13.49202l0 111.16701l15.249603 0l0 -36.366425l31.274605 0c7.3060303 0 13.81942 -1.5852737 19.540169 -4.755806c5.7207413 -3.1877747 10.243935 -7.6075745 13.569557 -13.259399c3.342842 -5.6690598 5.0142746 -12.104912 5.0142746 -19.307549c0 -7.512802 -1.6972809 -14.069267 -5.091812 -19.6694c-3.3945389 -5.617367 -7.952179 -9.98547 -13.672951 -13.104321c-5.7035294 -3.136074 -12.05323 -4.704113 -19.049072 -4.704113z" fill-rule="evenodd"/><path fill="#ff9900" d="m200.86374 54.37412c6.0481415 0 11.691345 1.0855637 16.929642 3.256691c5.2382812 2.1538963 9.761475 5.2210503 13.56955 9.201458c3.8080902 3.963173 6.771866 8.650047 8.891296 14.060646c2.1194305 5.393364 3.1791534 11.208893 3.1791534 17.446579c0 6.358307 -1.0597229 12.216911 -3.1791534 17.575813c-2.1194305 5.3416595 -5.1090546 10.028549 -8.968826 14.060646c-3.859787 4.0148773 -8.382965 7.133713 -13.569565 9.356537c-5.1865997 2.222824 -10.803955 3.3342285 -16.852097 3.3342285c-6.134308 0 -11.794754 -1.1114044 -16.981339 -3.3342285c-5.1865997 -2.222824 -9.683945 -5.3416595 -13.49202 -9.356537c-3.8080902 -4.032097 -6.771866 -8.7189865 -8.891296 -14.060646c-2.1194305 -5.358902 -3.1791534 -11.157196 -3.1791534 -17.394882c0 -6.3583145 1.0597229 -12.234146 3.1791534 -17.62751c2.1194305 -5.410591 5.083206 -10.097473 8.891296 -14.060646c3.808075 -3.9804077 8.30542 -7.0475616 13.49202 -9.201458c5.1865845 -2.1711273 10.847031 -3.256691 16.981339 -3.256691zm0 -13.517868c-8.770676 0 -16.705643 1.481884 -23.804901 4.4456444c-7.099243 2.9637642 -13.164642 7.099251 -18.196121 12.406456c-5.014282 5.289978 -8.899902 11.432899 -11.656906 18.428757c-2.7570038 6.97863 -4.135483 14.379425 -4.135483 22.202385c0 7.943573 1.378479 15.4133 4.135483 22.409164c2.7570038 6.97863 6.642624 13.121536 11.656906 18.428757c5.0315094 5.289963 11.096893 9.442673 18.196121 12.458145c7.0992584 3.0154572 15.034225 4.5231934 23.804901 4.5231934c8.787903 0 16.73146 -1.5077362 23.830719 -4.5231934c7.0992584 -3.0154572 13.156021 -7.168167 18.170288 -12.458145c5.0315247 -5.3072205 8.925781 -11.450127 11.6827545 -18.428757c2.7570038 -6.995865 4.135483 -14.405273 4.135483 -22.228233c0 -7.9435806 -1.378479 -15.404686 -4.135483 -22.383316c-2.7570038 -6.995865 -6.6512604 -13.138786 -11.6827545 -18.428757c-5.014267 -5.307205 -11.07103 -9.442692 -18.170288 -12.406456c-7.0992584 -2.9637604 -15.042816 -4.4456444 -23.830719 -4.4456444z" fill-rule="evenodd"/><path fill="#ff9900" d="m303.7837 42.923992c-6.15152 0 -11.579346 1.3784981 -16.283478 4.1354866c-4.7041016 2.7569885 -8.357117 6.522003 -10.959015 11.295044c-2.5846863 4.755806 -3.8770142 10.097481 -3.8770142 16.025002c0 5.8241425 1.3440247 11.036575 4.032074 15.637306c2.7052917 4.6007233 6.435852 8.202042 11.191681 10.803955c4.7730103 2.5846786 10.278381 3.8770142 16.516083 3.8770142l20.961731 0c3.704712 0 6.858032 0.82710266 9.45993 2.4812927c2.6018982 1.6369705 4.6093445 3.8080978 6.0223083 6.5133896c1.4301758 2.6880646 2.1452637 5.6173706 2.1452637 8.787903c0 3.0843887 -0.7409363 6.0050735 -2.2228088 8.762062c-1.4819031 2.7397614 -3.5496216 4.988434 -6.2032166 6.7460175c-2.636383 1.7403412 -5.8069153 2.6105194 -9.511627 2.6105194l-48.10086 0l0 13.49202l49.85843 0c6.134308 0 11.579376 -1.430191 16.335175 -4.290573c4.773041 -2.8603668 8.451904 -6.797699 11.036591 -11.811966c2.6018982 -5.0315094 3.9028625 -10.778114 3.9028625 -17.239807c0 -5.82415 -1.275116 -11.010735 -3.825348 -15.559769c-2.532959 -4.5662613 -6.185974 -8.16758 -10.959015 -10.803955c-4.755829 -2.6536026 -10.467957 -3.9804 -17.136414 -3.9804l-21.427002 0c-3.3945312 0 -6.392761 -0.7926407 -8.994659 -2.3779068c-2.5846863 -1.5852661 -4.540436 -3.6702423 -5.867218 -6.254921c-1.3268127 -2.6019135 -1.9902039 -5.3330536 -1.9902039 -8.193428c0 -2.963768 0.6892395 -5.7379837 2.0677185 -8.322662c1.3785095 -2.6019135 3.3859558 -4.7213516 6.0223083 -6.3583107c2.653595 -1.6541939 5.72937 -2.4812927 9.227295 -2.4812927l45.74881 0l0 -13.49202z" fill-rule="evenodd"/><path fill="#ff9900" d="m504.18198 54.37412c1.1717224 0 2.076355 0.37046814 2.7139282 1.1114082c0.6375427 0.7409439 1.2147827 1.7920494 1.73172 3.1533089l19.850342 55.105343l-48.74704 0l20.3414 -55.105343c0.41357422 -1.3612671 0.93911743 -2.4123688 1.5766602 -3.1533089c0.63757324 -0.7409401 1.4819031 -1.111412 2.5329895 -1.1114082zm-135.61884 -11.450127l0 13.49202l33.833435 0l0 67.977036c0 5.6173706 1.1889343 10.674713 3.566864 15.172058c2.3778992 4.497345 5.7638245 8.046967 10.157776 10.64888c4.3939514 2.584671 9.61499 3.8770142 15.663147 3.8770142l7.443878 0l0 -13.49202l-7.288788 0c-4.342285 0 -7.8143616 -1.3526611 -10.41626 -4.057953c-2.5846863 -2.7052917 -3.8770142 -6.1170654 -3.8770142 -10.235321l0 -69.889694l33.807587 0l0 -13.49202zm135.61884 -1.9126625c-3.9114685 0 -7.3490906 1.0080261 -10.312866 3.0240746c-2.963745 2.0160484 -5.289978 5.195202 -6.9786377 9.537464l-37.813843 100.518135l16.050873 0l9.847626 -26.828964l58.103546 0l9.692566 26.828964l16.671143 0l-37.943054 -100.67322c-1.5852661 -4.3422585 -3.88562 -7.4955673 -6.901123 -9.459923c-3.015442 -1.9643555 -6.4875183 -2.9465332 -10.416229 -2.9465332z" fill-rule="evenodd"/><path fill="#ff9900" d="m598.66473 41.01133c-5.9275513 0 -11.1658325 1.3526497 -15.714844 4.0579453c-4.549011 2.7052956 -8.098633 6.3841553 -10.648865 11.036575c-2.532959 4.65242 -3.7994995 9.890709 -3.7994995 15.714844l0 82.27031l15.249634 0l0 -84.3122c0 -2.860382 0.6633911 -5.4536743 1.9901733 -7.7798843c1.3268433 -2.343441 3.1275024 -4.195797 5.4019775 -5.5570564c2.2745361 -1.3784943 4.7816772 -2.0677414 7.5214233 -2.0677414c2.757019 0 5.298584 0.68924713 7.624817 2.0677414c2.3434448 1.3612671 4.195801 3.2136192 5.557068 5.5570564c1.378479 2.32621 2.067749 4.9195023 2.067749 7.7798843l0 55.415497c0 5.82415 1.2664795 11.062431 3.7994385 15.714851c2.550232 4.65242 6.0740356 8.331284 10.57135 11.036575c4.4973145 2.7052917 9.709778 4.0579376 15.637329 4.0579376c5.944702 0 11.139954 -1.3526459 15.585571 -4.0579376c4.4456787 -2.7052917 7.9349976 -6.3841553 10.467957 -11.036575c2.550232 -4.65242 3.8253174 -9.890701 3.8253174 -15.714851l0 -82.27031l-15.249573 0l0 84.33804c0 2.860382 -0.6633911 5.4536743 -1.9902344 7.779892c-1.3267822 2.3262024 -3.1016235 4.1785583 -5.324402 5.5570526c-2.2228394 1.3784943 -4.661072 2.0677338 -7.314636 2.0677338c-2.6364136 0 -5.091858 -0.6892395 -7.366333 -2.0677338c-2.2745361 -1.3784943 -4.101074 -3.2308502 -5.479553 -5.5570526c-1.378479 -2.3262177 -2.067749 -4.91951 -2.067749 -7.779892l0 -55.441345c0 -5.824135 -1.2750854 -11.062424 -3.8253174 -15.714844c-2.532959 -4.65242 -6.0739746 -8.33128 -10.623047 -11.036575c-4.549011 -2.7052956 -9.847595 -4.0579453 -15.895752 -4.0579453z" fill-rule="evenodd"/><path fill="#ff9900" d="m732.69653 56.41601c8.270996 0 15.602905 1.6972733 21.995667 5.091816c6.409973 3.3945465 11.467346 8.219276 15.172058 14.474197c3.7046509 6.237686 5.557007 13.750488 5.557007 22.538399c0 8.667282 -1.852356 16.154236 -5.557007 22.460854c-3.704712 6.30661 -8.762085 11.157181 -15.172058 14.551743c-6.392761 3.377304 -13.72467 5.0659637 -21.995667 5.0659637l-20.470642 0l0 -84.18297zm-35.720215 -13.49202l0 111.16701l35.565186 0c11.8550415 0 22.098999 -2.3778992 30.731812 -7.133713c8.6328125 -4.773041 15.327148 -11.3381195 20.082947 -19.695251c4.7730103 -8.3743515 7.159546 -17.954887 7.159546 -28.741615c0 -10.803955 -2.3865356 -20.384499 -7.159546 -28.741623c-4.7557983 -8.374359 -11.450134 -14.939442 -20.082947 -19.695251c-8.6328125 -4.773037 -18.87677 -7.1595573 -30.731812 -7.1595573z" fill-rule="evenodd"/><path fill="#ff9900" d="m861.6411 54.37412c6.0481567 0 11.691345 1.0855637 16.929626 3.256691c5.2382812 2.1538963 9.761475 5.2210503 13.56958 9.201458c3.8081055 3.963173 6.7718506 8.650047 8.891296 14.060646c2.1194458 5.393364 3.1791382 11.208893 3.1791382 17.446579c0 6.358307 -1.0596924 12.216911 -3.1791382 17.575813c-2.1194458 5.3416595 -5.10907 10.028549 -8.968872 14.060646c-3.8597412 4.0148773 -8.382935 7.133713 -13.569519 9.356537c-5.1865845 2.222824 -10.803955 3.3342285 -16.852112 3.3342285c-6.1342773 0 -11.794739 -1.1114044 -16.981323 -3.3342285c-5.1865845 -2.222824 -9.68396 -5.3416595 -13.492065 -9.356537c-3.8080444 -4.032097 -6.7718506 -8.7189865 -8.891235 -14.060646c-2.1194458 -5.358902 -3.1791992 -11.157196 -3.1791992 -17.394882c0 -6.3583145 1.0597534 -12.234146 3.1791992 -17.62751c2.1193848 -5.410591 5.083191 -10.097473 8.891235 -14.060646c3.8081055 -3.9804077 8.305481 -7.0475616 13.492065 -9.201458c5.1865845 -2.1711273 10.847046 -3.256691 16.981323 -3.256691zm0 -13.517868c-8.770691 0 -16.705627 1.481884 -23.80487 4.4456444c-7.099304 2.9637642 -13.164673 7.099251 -18.196167 12.406456c-5.014282 5.289978 -8.899902 11.432899 -11.65686 18.428757c-2.757019 6.97863 -4.135498 14.379425 -4.135498 22.202385c0 7.943573 1.378479 15.4133 4.135498 22.409164c2.756958 6.97863 6.642578 13.121536 11.65686 18.428757c5.031555 5.289963 11.096924 9.442673 18.196167 12.458145c7.099243 3.0154572 15.03418 4.5231934 23.80487 4.5231934c8.787903 0 16.731445 -1.5077362 23.83075 -4.5231934c7.099243 -3.0154572 13.156006 -7.168167 18.170288 -12.458145c5.031494 -5.3072205 8.92572 -11.450127 11.682739 -18.428757c2.756958 -6.995865 4.135498 -14.405273 4.135498 -22.228233c0 -7.9435806 -1.37854 -15.404686 -4.135498 -22.383316c-2.756958 -6.995865 -6.651245 -13.138786 -11.682739 -18.428757c-5.014282 -5.307205 -11.071045 -9.442692 -18.170288 -12.406456c-7.099304 -2.9637604 -15.042847 -4.4456444 -23.83075 -4.4456444z" fill-rule="evenodd"/></g></svg>